<svg xmlns="http://www.w3.org/2000/svg" viewBox="0 0 32 32">
<defs><linearGradient id="bg" x1="0" y1="1" x2="0" y2="0">
<stop offset="0" stop-color="#292445"/>
<stop offset="1" stop-color="#3D3661"/>
</linearGradient></defs>
<rect width="32" height="32" rx="7.2" fill="url(#bg)"/>
<rect x="10" y="7" width="12" height="1" fill="#0A0912"/>
<rect x="8" y="8" width="2" height="1" fill="#0A0912"/>
<rect x="10" y="8" width="12" height="1" fill="#241F35"/>
<rect x="22" y="8" width="2" height="1" fill="#0A0912"/>
<rect x="7" y="9" width="1" height="1" fill="#0A0912"/>
<rect x="8" y="9" width="1" height="1" fill="#241F35"/>
<rect x="9" y="9" width="2" height="1" fill="#3A3554"/>
<rect x="11" y="9" width="10" height="1" fill="#241F35"/>
<rect x="21" y="9" width="2" height="1" fill="#3A3554"/>
<rect x="23" y="9" width="1" height="1" fill="#241F35"/>
<rect x="24" y="9" width="1" height="1" fill="#0A0912"/>
<rect x="6" y="10" width="1" height="1" fill="#0A0912"/>
<rect x="7" y="10" width="18" height="1" fill="#241F35"/>
<rect x="25" y="10" width="1" height="1" fill="#0A0912"/>
<rect x="6" y="11" width="1" height="1" fill="#0A0912"/>
<rect x="7" y="11" width="7" height="1" fill="#241F35"/>
<rect x="14" y="11" width="4" height="1" fill="#6C6A8A"/>
<rect x="18" y="11" width="7" height="1" fill="#241F35"/>
<rect x="25" y="11" width="1" height="1" fill="#0A0912"/>
<rect x="6" y="12" width="1" height="1" fill="#0A0912"/>
<rect x="7" y="12" width="7" height="1" fill="#241F35"/>
<rect x="14" y="12" width="4" height="1" fill="#6C6A8A"/>
<rect x="18" y="12" width="7" height="1" fill="#241F35"/>
<rect x="25" y="12" width="1" height="1" fill="#0A0912"/>
<rect x="6" y="13" width="1" height="1" fill="#0A0912"/>
<rect x="7" y="13" width="2" height="1" fill="#241F35"/>
<rect x="9" y="13" width="1" height="1" fill="#F0F0EB"/>
<rect x="10" y="13" width="1" height="1" fill="#1E1923"/>
<rect x="11" y="13" width="10" height="1" fill="#241F35"/>
<rect x="21" y="13" width="1" height="1" fill="#F0F0EB"/>
<rect x="22" y="13" width="1" height="1" fill="#1E1923"/>
<rect x="23" y="13" width="2" height="1" fill="#241F35"/>
<rect x="25" y="13" width="1" height="1" fill="#0A0912"/>
<rect x="6" y="14" width="1" height="1" fill="#0A0912"/>
<rect x="7" y="14" width="18" height="1" fill="#1A100E"/>
<rect x="25" y="14" width="1" height="1" fill="#0A0912"/>
<rect x="6" y="15" width="1" height="1" fill="#0A0912"/>
<rect x="7" y="15" width="7" height="1" fill="#241F35"/>
<rect x="14" y="15" width="5" height="1" fill="#6C6A8A"/>
<rect x="19" y="15" width="6" height="1" fill="#241F35"/>
<rect x="25" y="15" width="1" height="1" fill="#0A0912"/>
<rect x="6" y="16" width="1" height="1" fill="#0A0912"/>
<rect x="7" y="16" width="7" height="1" fill="#241F35"/>
<rect x="14" y="16" width="1" height="1" fill="#6C6A8A"/>
<rect x="15" y="16" width="3" height="1" fill="#9B5DE5"/>
<rect x="18" y="16" width="1" height="1" fill="#6C6A8A"/>
<rect x="19" y="16" width="6" height="1" fill="#241F35"/>
<rect x="25" y="16" width="1" height="1" fill="#0A0912"/>
<rect x="6" y="17" width="1" height="1" fill="#0A0912"/>
<rect x="7" y="17" width="7" height="1" fill="#241F35"/>
<rect x="14" y="17" width="1" height="1" fill="#6C6A8A"/>
<rect x="15" y="17" width="1" height="1" fill="#9B5DE5"/>
<rect x="16" y="17" width="1" height="1" fill="#CBA6F7"/>
<rect x="17" y="17" width="1" height="1" fill="#9B5DE5"/>
<rect x="18" y="17" width="1" height="1" fill="#6C6A8A"/>
<rect x="19" y="17" width="6" height="1" fill="#241F35"/>
<rect x="25" y="17" width="1" height="1" fill="#0A0912"/>
<rect x="6" y="18" width="1" height="1" fill="#0A0912"/>
<rect x="7" y="18" width="7" height="1" fill="#241F35"/>
<rect x="14" y="18" width="1" height="1" fill="#6C6A8A"/>
<rect x="15" y="18" width="3" height="1" fill="#9B5DE5"/>
<rect x="18" y="18" width="1" height="1" fill="#6C6A8A"/>
<rect x="19" y="18" width="6" height="1" fill="#241F35"/>
<rect x="25" y="18" width="1" height="1" fill="#0A0912"/>
<rect x="6" y="19" width="1" height="1" fill="#0A0912"/>
<rect x="7" y="19" width="7" height="1" fill="#241F35"/>
<rect x="14" y="19" width="5" height="1" fill="#6C6A8A"/>
<rect x="19" y="19" width="6" height="1" fill="#241F35"/>
<rect x="25" y="19" width="1" height="1" fill="#0A0912"/>
<rect x="6" y="20" width="1" height="1" fill="#0A0912"/>
<rect x="7" y="20" width="18" height="1" fill="#241F35"/>
<rect x="25" y="20" width="1" height="1" fill="#0A0912"/>
<rect x="6" y="21" width="1" height="1" fill="#0A0912"/>
<rect x="7" y="21" width="1" height="1" fill="#241F35"/>
<rect x="8" y="21" width="1" height="1" fill="#3A3554"/>
<rect x="9" y="21" width="14" height="1" fill="#241F35"/>
<rect x="23" y="21" width="1" height="1" fill="#3A3554"/>
<rect x="24" y="21" width="1" height="1" fill="#241F35"/>
<rect x="25" y="21" width="1" height="1" fill="#0A0912"/>
<rect x="7" y="22" width="1" height="1" fill="#0A0912"/>
<rect x="8" y="22" width="16" height="1" fill="#241F35"/>
<rect x="24" y="22" width="1" height="1" fill="#0A0912"/>
<rect x="8" y="23" width="2" height="1" fill="#0A0912"/>
<rect x="10" y="23" width="12" height="1" fill="#241F35"/>
<rect x="22" y="23" width="2" height="1" fill="#0A0912"/>
<rect x="10" y="24" width="12" height="1" fill="#0A0912"/>
</svg>
